<svg width="444" height="48" viewBox="0 0 444 48" fill="none" xmlns="http://www.w3.org/2000/svg">
<path d="M182.582 37.8574H169.065C168.295 37.8574 167.532 37.7059 166.82 37.4116C166.109 37.1173 165.462 36.686 164.918 36.1425C164.374 35.5989 163.943 34.9537 163.65 34.2438C163.357 33.534 163.207 32.7735 163.209 32.0058V0.27191H144.058V32.0058C143.956 42.5555 150.782 47.6608 159.379 47.7625H201.699V0.27191H182.582V37.8574ZM125.996 26.6801C137.742 21.5918 136.04 0.678972 117.586 0.27191H75.5211V47.7625H94.6895V31.2426H105.142C106.592 31.1454 108.034 31.5127 109.26 32.2909C110.485 33.069 111.428 34.2172 111.951 35.5676L117.569 47.7625H137.453C131.494 34.0751 131.205 30.3945 125.996 26.6801ZM107.134 21.1H94.8938V10.1771H107.134C115.867 10.5842 115.867 21.0491 107.134 21.1ZM45.2022 37.8574H36.0266C15.309 37.7556 15.309 10.5842 36.5373 10.1771H59.2126V0.000541339H26.5956C-8.26856 -0.186029 -7.68976 47.9152 26.5956 48H64.0473V21.3544H45.2022V37.8574ZM353.328 47.5251H372.632V0.27191H353.447L353.328 47.5251ZM423.924 21.3544V37.8574H415.259C394.49 37.7556 394.49 10.5842 415.77 10.1771H438.224V0.000541339H405.607C370.675 -0.186029 371.236 47.9152 405.607 47.7456H443.331V21.3544H423.924ZM318.685 0.27191H281.948V47.7625H318.395C354.468 47.6608 354.196 1.23868 318.685 0.27191ZM309.509 37.8574H301.099V10.1771H309.509C330.039 10.5842 330.039 37.7556 309.509 37.8574ZM255.221 0.0175059H212.918V47.7625H232.29V10.1771H245.79C246.564 10.1609 247.332 10.3008 248.05 10.5883C248.768 10.8758 249.42 11.3049 249.967 11.85C250.514 12.395 250.945 13.0447 251.234 13.7599C251.522 14.4751 251.662 15.241 251.646 16.0117V47.7625H270.764V15.7573C270.678 4.91922 264.141 0.102311 255.221 0.0175059Z" fill="black"/>
</svg>
